Simulation
nRows=40
nColumns=15
endheader
time  TH_x TH_y TH_z SC_y  SC_z  SC_x  AC_y  AC_z  AC_x  GH_y  GH_z  GH_yy  EL_x  PS_y
0.0  0.000000  0.000000  0.000000  -31.794998197707397  1.1383263397377905  30.739831964679876  52.12561275971665  -13.696660211285858  -21.469506799180927  -141.31334278792758  3.6271647575975634  171.28230964361987  22.51810735938532  0.000000
0.031  0.000000  0.000000  0.000000  -31.723052237150693  0.916690322644643  30.790137734087086  51.57796139392215  -14.641949602986159  -22.178332620551906  -130.88456998048275  3.9477973910289528  160.66251040556855  22.34106894663237  0.000000
0.062  0.000000  0.000000  0.000000  -31.44472473831175  0.5044877567349552  30.778404892323795  51.09270559971103  -15.81240696422457  -22.805769598900852  -123.76104862422844  4.123582877808255  153.21596015462308  22.246694746663415  0.000000
0.093  0.000000  0.000000  0.000000  -31.18037001147542  0.017231114874978644  30.7515142418634  50.669669474605634  -16.98872163008405  -23.40301799366683  -120.36975800292035  4.103007617248332  149.4020542598328  22.242335207595495  0.000000
0.124  0.000000  0.000000  0.000000  -30.92682637507796  -0.4588054505083049  30.755618811116825  50.27038270994118  -18.0853641082921  -23.968050985944416  -119.45115714086401  3.925987697301253  148.01955586478178  22.25891160784838  0.000000
0.155  0.000000  0.000000  0.000000  -30.69181452828534  -0.8955320359019507  30.795490613098416  49.89556959815944  -19.038262447958942  -24.50381262120003  -119.99310626807286  3.6250607561778696  148.0648127537933  22.278178860975782  0.000000
0.186  0.000000  0.000000  0.000000  -30.467338662718543  -1.2712272748881246  30.861130519062144  49.551167176594134  -19.83362364084644  -24.987088142952924  -120.97086129171758  3.224443791727943  148.52382490991735  22.283090230377212  0.000000
0.217  0.000000  0.000000  0.000000  -30.255939227411126  -1.5784553135942196  30.949079104341024  49.25328498579017  -20.478004718630025  -25.412063982638404  -121.60161041751248  2.721325892750503  148.60664530565745  22.274329700400816  0.000000
0.248  0.000000  0.000000  0.000000  -30.063907040648555  -1.8184166112424869  31.05812764778752  49.007780294393335  -20.99203379290815  -25.768613249422685  -120.61594361648858  2.1136867757188136  147.04428457093246  22.249440939010416  0.000000
0.279  0.000000  0.000000  0.000000  -29.900322059810392  -2.001727898166318  31.188933455414343  48.821207095525644  -21.39485052958892  -26.062255228865  -114.96768664418042  1.401014475180504  140.78416239713783  22.209628620251888  0.000000
0.31  0.000000  0.000000  0.000000  -29.770522911154764  -2.13595586971473  31.34465449518304  48.694561185855044  -21.707558303946204  -26.29643522415473  -86.75606963064969  0.6781280020019936  111.93089822509954  22.157401708622398  0.000000
0.34099999999999997  0.000000  0.000000  0.000000  -29.675190336497266  -2.2259172825950992  31.533542762350507  48.62493052841582  -21.95169731181032  -26.483254624909122  -2.7318627243466196  0.813275983453472  27.23448096409327  22.095175319470155  0.000000
0.372  0.000000  0.000000  0.000000  -29.620034985297476  -2.2764271157479534  31.762739279685626  48.60670269763679  -22.14657345980635  -26.63085341494283  20.348508756982977  1.841164351700089  3.4567853277926006  22.024229711298787  0.000000
0.403  0.000000  0.000000  0.000000  -29.601742167711237  -2.2910663744958577  32.03964945987486  48.63291734431667  -22.304754303802362  -26.75092035724234  26.142615208136256  3.082307862107627  -3.058674425227812  21.945999009328  0.000000
0.434  0.000000  0.000000  0.000000  -29.618342750689028  -2.272487987723386  32.36768811915556  48.69831704474968  -22.43628116072685  -26.849783834746937  28.28098511979879  4.452995473705539  -5.9367195035084706  21.861982466473812  0.000000
0.46499999999999997  0.000000  0.000000  0.000000  -29.665146743910167  -2.2234048814805836  32.75116189152919  48.79709396490954  -22.54601137656913  -26.935200042514495  29.19904069883925  5.926010594738194  -7.610628769814223  21.77333286871336  0.000000
0.496  0.000000  0.000000  0.000000  -29.73707362281124  -2.145347733400607  33.18912481219656  48.925783619985005  -22.63719713237182  -27.009846830269122  29.59933139522973  7.482571214723589  -8.779285447821453  21.680808309729663  0.000000
0.527  0.000000  0.000000  0.000000  -29.830723901037132  -2.038566171570014  33.68036978901377  49.079385874988304  -22.708083453859935  -27.07371073066998  29.74740687006316  9.103109647324848  -9.704680478172508  21.585745879558573  0.000000
0.558  0.000000  0.000000  0.000000  -29.93875616772152  -1.9073391528670804  34.217688686659585  49.25725521539843  -22.75500946570049  -27.127031935529526  29.75055455528647  10.772138589735436  -10.493157363539682  21.487338835145593  0.000000
0.589  0.000000  0.000000  0.000000  -30.060049744523194  -1.7538677444748558  34.80208905283989  49.453111214663835  -22.775816516560795  -27.17184489448013  29.64841409401448  12.475899698459017  -11.181452254650916  21.385227312407185  0.000000
0.62  0.000000  0.000000  0.000000  -30.189856746034017  -1.5750746862288052  35.41963750883036  49.66586221881692  -22.76278963036331  -27.202733980510384  29.47271475918864  14.207010520606572  -11.800557113664244  21.280315880832497  0.000000
0.651  0.000000  0.000000  0.000000  -30.32676763902379  -1.3725127342441956  36.04845940200345  49.896131412037555  -22.699762328761285  -27.205875780391562  29.233772556988473  15.958383949009349  -12.35799742906762  21.173059286748465  0.000000
0.6819999999999999  0.000000  0.000000  0.000000  -30.466487449822843  -1.1525627572837969  36.66934549994579  50.14800126078356  -22.577845165725716  -27.173929018473782  28.946446366138296  17.723554189108917  -12.868403047757782  21.0626254598296  0.000000
0.713  0.000000  0.000000  0.000000  -30.606857606104125  -0.9219599552431819  37.27851186354227  50.41788450580091  -22.396645503909788  -27.108261168649687  28.61641339795377  19.492577268466047  -13.335331223304623  20.94932233777487  0.000000
0.744  0.000000  0.000000  0.000000  -30.744673766658448  -0.6851433284889594  37.885209924673674  50.699363290747634  -22.16927506336004  -27.020815367250314  28.250940507900943  21.257592937482503  -13.76458000330199  20.83398788110718  0.000000
0.775  0.000000  0.000000  0.000000  -30.8799316352939  -0.4407186541268678  38.50684339777901  50.982880033928346  -21.91264915665762  -26.92158054052095  27.859781670419956  23.01155384244731  -14.161697909356517  20.716694235854376  0.000000
0.806  0.000000  0.000000  0.000000  -31.009957834570443  -0.18583301054176338  39.14305544219127  51.26299108446152  -21.63407431208024  -26.81276919173294  27.456719916994107  24.752798471411865  -14.537336439036201  20.598440009753748  0.000000
0.837  0.000000  0.000000  0.000000  -31.13476704375474  0.07942778397264322  39.78974450006015  51.534685759696465  -21.33378181118718  -26.6920885536639  27.046429753713316  26.47883499071765  -14.89184728698752  20.48023452708442  0.000000
0.868  0.000000  0.000000  0.000000  -31.252735071927894  0.3546244819792094  40.439931037108046  51.79514646009193  -21.01392489983351  -26.55871528004318  26.634159808368395  28.188079647992904  -15.227317891749587  20.362077344658147  0.000000
0.899  0.000000  0.000000  0.000000  -31.364857814985932  0.6386980180385065  41.0875821513758  52.04094354993048  -20.674532782256737  -26.409631591549005  26.22120418882865  29.877751210819156  -15.540854769737253  20.244511513572654  0.000000
0.9299999999999999  0.000000  0.000000  0.000000  -31.47017213495895  0.9305359743373895  41.72541559766634  52.26991587608446  -20.317865557053683  -26.243879468315615  25.810529457076157  31.545467722642126  -15.832331946967159  20.127407364259575  0.000000
0.961  0.000000  0.000000  0.000000  -31.57128618060247  1.229240736062175  42.34762919457232  52.480406631711645  -19.944768322694447  -26.05858081621502  25.403563652225134  33.18816730476264  -16.09978584846358  20.011274880205157  0.000000
0.992  0.000000  0.000000  0.000000  -31.668297359637542  1.5332977385546016  42.94777430790412  52.67211784459394  -19.557806776228176  -25.852680342331865  25.002201623516964  34.80266223309758  -16.342732596508636  19.896219919003222  0.000000
1.023  0.000000  0.000000  0.000000  -31.763754944890103  1.8411309665603866  43.52158261498628  52.845200098255  -19.15834775106164  -25.623716712651788  24.60843324146984  36.385709711922686  -16.560717731767085  19.78232999458328  0.000000
1.054  0.000000  0.000000  0.000000  -31.857405987196664  2.1511621066321456  44.06326846243242  53.00058147116437  -18.748993084113827  -25.370786060902415  24.225760939714473  37.93444264643633  -16.755696355069016  19.669861700073536  0.000000
1.085  0.000000  0.000000  0.000000  -31.951473715986868  2.461596938551313  44.56949112358406  53.13955419977656  -18.330942321113277  -25.092172861439597  23.85667895174038  39.445731514302025  -16.928633469269755  19.559247624209792  0.000000
1.116  0.000000  0.000000  0.000000  -32.04539984024803  2.7703370274220855  45.03550932733662  53.26389761274813  -17.906764227054424  -24.788123724145077  23.503387187434722  40.91668559205091  -17.08138938534548  19.45069225765132  0.000000
1.147  0.000000  0.000000  0.000000  -32.1416204268749  3.0755191457684896  45.459828608252316  53.3755084874375  -17.478482630127502  -24.458383324720813  23.167169007484947  42.3439965019818  -17.214841240895886  19.344497061635746  0.000000
1.178  0.000000  0.000000  0.000000  -32.23985222516676  3.3753003444965053  45.8389021787267  53.47640703452262  -17.04935204879649  -24.104477159963324  22.849660369502995  43.72503474642946  -17.331201542909323  19.241024137328743  0.000000
1.209  0.000000  0.000000  0.000000  -32.341915271825506  3.6674356034147766  46.17324528682405  53.568910755664255  -16.62202629899972  -23.727953540963966  22.55154525865365  45.056709775917625  -17.432091646153836  19.14041614733504  0.000000
